<svg width="1080" height="1080" viewBox="0 0 1080 1080" fill="none" xmlns="http://www.w3.org/2000/svg">
<rect width="1080" height="1080" rx="540" fill="url(#paint0_linear_163_2)"/>
<path fill-rule="evenodd" clip-rule="evenodd" d="M226.669 190.94C203.982 196.934 189.985 215.499 190 239.575C190.007 249.873 190.79 253.585 194.41 260.451C200.381 271.779 208.386 279.048 220.155 283.831L230.01 287.836L230.446 357.586L230.882 427.335L223.466 434.441C200.327 456.61 194.805 476.222 193.048 542.443C191.634 595.808 193.969 611.049 206.651 631.214C211.575 639.042 222.752 650.42 225.52 650.42C226.203 650.42 228.388 649.281 230.375 647.89C233.975 645.368 233.985 645.178 233.025 598.205C231.55 525.981 235.032 495.286 249.956 449.011C257.708 424.973 257.823 421.312 250.89 419.111C247.621 418.074 247.548 416.596 247.548 352.586V287.121L256.081 284.091C267.153 280.16 277.908 270.124 282.8 259.16C288.521 246.337 288.314 228.414 282.313 217.028C273.717 200.723 259.326 191.123 242.066 190.183C236.353 189.871 229.425 190.212 226.669 190.94ZM828.802 190.933C805.687 198.544 792.953 215.828 792.968 239.575C792.975 249.869 793.763 253.607 797.398 260.556C803.088 271.444 812.991 280.32 823.674 284.115L832.143 287.121V352.586C832.143 416.596 832.069 418.074 828.801 419.111C821.867 421.312 821.983 424.973 829.734 449.011C844.662 495.296 848.142 525.976 846.664 598.255L845.699 645.46L849.666 648.059C854.598 651.29 857.631 649.867 866.337 640.231C875.53 630.058 883.236 612.175 885.697 595.307C888.324 577.302 886.635 508.204 883.068 487.746C878.889 463.786 871.464 449.043 856.225 434.441L848.809 427.335L849.245 357.586L849.681 287.836L859.535 283.831C871.653 278.907 879.328 271.684 885.246 259.636C891.296 247.319 891.613 229.015 885.961 218.328C876.604 200.638 862.259 191.027 843.835 190.103C837.863 189.804 831.099 190.178 828.802 190.933ZM511.451 243.117C447.17 250.502 388.303 280.232 341.014 329.188C288.207 383.858 258.558 448.503 250.771 525.946C248.418 549.361 249.61 634.589 252.55 652.925C267.035 743.273 320.33 818.257 398.807 858.697C445.365 882.688 478.309 890 539.845 890C564.109 890 584.199 889.17 592.459 887.827C653.385 877.918 705.695 851.766 747.305 810.411C793.999 764.004 822.434 704.366 828.704 639.692C830.987 616.136 830.987 541.439 828.704 520.505C818.099 423.313 764.213 335.467 683.489 283.777C633.096 251.509 569.412 236.458 511.451 243.117ZM554.236 332.955C576.554 343.09 578.432 375.042 557.56 389.505C552.028 393.338 549.246 394.059 539.987 394.059C526.565 394.059 518.407 389.69 512.434 379.301C507.029 369.9 505.867 363.158 508.162 354.535C512.17 339.472 524.534 329.834 539.845 329.834C543.979 329.834 550.455 331.238 554.236 332.955ZM368.337 361.219C394.03 400.474 419.208 428.519 435.682 436.235L445.475 440.822H539.845H634.216L643.896 436.286C660.061 428.714 686.198 399.653 711.203 361.447L725.638 339.394L731.424 345.181L737.211 350.966L730.196 362.493C715.934 385.928 701.837 404.394 679.609 428.759C664.427 445.398 650.215 453.841 632.545 456.712C627.002 457.612 585.577 458.338 539.845 458.338C494.113 458.338 452.689 457.612 447.145 456.712C441.633 455.815 431.739 452.428 425.156 449.185C415.094 444.224 410.736 440.562 397.795 426.187C380.566 407.051 361.494 382.091 349.96 363.59L342.285 351.278L347.857 345.53C350.922 342.368 353.627 339.781 353.869 339.781C354.109 339.781 360.62 349.428 368.337 361.219ZM453.826 510.9C458.419 512.493 470.868 518.177 481.489 523.528C505.945 535.851 517.352 538.844 539.845 538.844C562.339 538.844 573.745 535.851 598.201 523.528C624.393 510.33 631.383 508.173 650.918 507.247C681.932 505.778 704.945 514.716 726.961 536.78C746.349 556.21 753.78 574.499 756.169 608.668C759.237 652.553 747.036 697.597 721.651 736.103C682.151 796.022 602.804 830.738 520.662 824.044C433.001 816.9 366.762 770.988 337.31 696.963C323.597 662.497 319.403 615.966 326.981 582.39C334.672 548.312 364.512 518.023 398.949 509.338C411.973 506.053 442.348 506.918 453.826 510.9ZM440.486 562.267C426.399 565.27 417.379 575.282 414.389 591.232C411.47 606.804 413.279 638.016 417.59 646.452C429.56 669.879 461.251 671.252 475.124 648.944C478.503 643.513 478.937 640.371 479.441 617.733C479.779 602.632 479.261 589.799 478.145 585.659C473.766 569.394 456.721 558.807 440.486 562.267ZM627.534 561.937C614.754 564.691 604.727 573.844 601.545 585.659C600.429 589.799 599.911 602.632 600.249 617.733C600.753 640.371 601.188 643.513 604.567 648.944C615.096 665.874 638.672 670.091 653.42 657.682C662.732 649.847 665.53 641.794 666.39 620.358C667.267 598.518 665.087 583.715 659.879 576.112C652.988 566.057 638.293 559.617 627.534 561.937Z" fill="white"/>
<path d="M627.036 693.612C607.504 689.873 578.633 686.021 541.432 686.021H541.42C504.23 686.021 475.359 689.873 455.828 693.612C448.214 695.07 445.552 700.752 445.552 705.288C445.552 746.357 477.203 787.698 541.426 787.698C605.66 787.698 637.312 746.363 637.312 705.288C637.312 700.752 634.644 695.07 627.036 693.612ZM620.251 714.997C619.941 717.5 619.478 720.505 618.751 723.769C617.955 727.39 617.273 729.056 611.61 728.378C600.782 727.085 482.076 727.085 471.247 728.378C465.585 729.051 464.914 727.384 464.107 723.769C463.474 720.87 462.975 717.943 462.613 714.997C462.105 710.806 462.551 707.835 469.849 706.604C482.229 704.531 508.415 700.887 541.426 700.887C574.437 700.887 600.624 704.531 613.003 706.604C620.302 707.835 620.753 710.8 620.251 714.997Z" fill="white"/>
<defs>
<linearGradient id="paint0_linear_163_2" x1="133.945" y1="186.68" x2="856.5" y2="911" gradientUnits="userSpaceOnUse">
<stop stop-color="#1D4ED8"/>
<stop offset="1" stop-color="#1E3A8A"/>
</linearGradient>
</defs>
</svg>
